<svg xmlns="http://www.w3.org/2000/svg" viewBox="0 0 333.9 98.7" width="120" height="35"><style>.st0{fill:#FFFFFF;} .st1{fill:#EFEFEF;} .st2{fill:none;} .st3{opacity:0.6;fill:#0C436A;} .st4{fill:#8DCE19;} .st5{fill:#1F496B;} .st6{fill:#0C436A;} .st7{fill:#F4772B;} .st8{fill:#0C4862;} .st9{fill:#BCCB2A;} .st10{clip-path:url(#SVGID_5_);fill:#0C4862;} .st11{clip-path:url(#SVGID_7_);fill:#BCCB2A;} .st12{clip-path:url(#SVGID_9_);fill:#0C4862;} .st13{clip-path:url(#SVGID_11_);fill:#BCCB2A;} .st14{clip-path:url(#SVGID_13_);fill:#0C4862;} .st15{clip-path:url(#SVGID_15_);fill:#BCCB2A;} .st16{fill:none;stroke:#D8D8D8;stroke-width:2;stroke-miterlimit:10;} .st17{fill:#01A4DD;} .st18{fill:url(#SVGID_16_);} .st19{fill:url(#SVGID_17_);} .st20{fill:#F7F7F7;stroke:#DDDDDD;} .st21{fill:#F9F9F9;} .st22{fill:#DDDDDD;} .st23{fill:#F8F8F8;} .st24{fill:url(#SVGID_18_);} .st25{fill:#359CD7;} .st26{fill:#BCCB32;} .st27{fill:#3C740A;} .st28{fill:#30648C;} .st29{fill:#C80600;} .st30{fill:#204600;} .st31{fill:#B2B4B6;} .st32{fill:#FFFFFF;stroke:#000000;stroke-miterlimit:10;} .st33{fill:#B74E29;} .st34{fill:#383B3C;} .st35{fill:#666666;} .st36{fill:#345327;} .st37{fill:#083344;} .st38{fill:#027E9B;} .st39{fill:none;stroke:#383B3C;stroke-width:0.5;stroke-miterlimit:10;} .st40{fill:#FCB619;} .st41{fill:#F4782A;} .st42{fill:#EEEEEE;stroke:#F0F0F0;stroke-miterlimit:10;} .st43{fill:#FFD700;} .st44{fill:#00A3DD;} .st45{fill:#F3782A;} .st46{clip-path:url(#SVGID_19_);} .st47{fill:none;stroke:#FFFFFF;stroke-width:2;stroke-miterlimit:10;} .st48{fill:none;stroke:#30648C;stroke-miterlimit:10;} .st49{fill:none;stroke:#027E9B;stroke-miterlimit:10;} .st50{fill:none;stroke:#01A4DD;stroke-miterlimit:10;} .st51{fill:#FFFFFF;stroke:#DDDDDD;stroke-miterlimit:10;} .st52{fill:none;stroke:#EFEFEF;stroke-miterlimit:10;} .st53{fill:none;stroke:#F4772B;stroke-width:2;stroke-miterlimit:10;} .st54{fill:none;stroke:#01A4DD;stroke-width:2;stroke-miterlimit:10;} .st55{opacity:0.95;fill:#FFFFFF;stroke:#FFFFFF;stroke-miterlimit:10;stroke-opacity:0.81;} .st56{opacity:0.95;fill:#FFFFFF;stroke:#FFFFFF;stroke-miterlimit:10;} .st57{opacity:0.95;fill:#FFFFFF;} .st58{fill:#7F7F7F;} .st59{fill:#0F4055;} .st60{opacity:0.9;fill:none;stroke:#FFFFFF;stroke-width:2;stroke-miterlimit:10;} .st61{fill:#A4AAAD;} .st62{fill:url(#SVGID_20_);} .st63{fill:url(#SVGID_21_);} .st64{fill:#A04327;} .st65{opacity:0.86;} .st66{fill:#024423;} .st67{fill:none;stroke:#024423;stroke-miterlimit:10;} .st68{fill:url(#SVGID_22_);} .st69{fill:none;stroke:#7CB517;stroke-miterlimit:10;} .st70{fill:#618E11;} .st71{fill:url(#SVGID_23_);} .st72{opacity:0.94;} .st73{fill:#033E5E;} .st74{fill:none;stroke:#033E5E;stroke-miterlimit:10;} .st75{fill:url(#SVGID_24_);} .st76{fill:none;stroke:#336FA1;stroke-miterlimit:10;} .st77{fill:none;stroke:#1F496B;stroke-miterlimit:10;} .st78{fill:#5B2304;} .st79{fill:none;stroke:#5B2304;stroke-miterlimit:10;} .st80{fill:url(#SVGID_25_);} .st81{fill:none;stroke:#A04327;stroke-miterlimit:10;} .st82{fill:#8DCE19;stroke:#204600;stroke-miterlimit:10;} .st83{fill:#FFFFFF;stroke:#3C740A;stroke-miterlimit:10;} .st84{fill:#FFFFFF;stroke:#30648C;stroke-miterlimit:10;} .st85{fill:none;stroke:#FFFFFF;stroke-miterlimit:10;} .st86{fill:url(#SVGID_34_);} .st87{fill:#1F496B;fill-opacity:0.88;} .st88{fill:none;stroke:#DDDDDD;} .st89{fill:none;stroke:#595959;} .st90{fill:#231F20;} .st91{fill:none;stroke:#929497;} .st92{fill:none;stroke:#30648C;stroke-width:0.797;stroke-miterlimit:10;} .st93{fill:#F7F7F7;} .st94{fill:none;stroke:#30648C;stroke-width:0.598;stroke-miterlimit:10;} .st95{fill:#204600;stroke:#204600;stroke-width:0.797;stroke-miterlimit:10;} .st96{fill:#EDEDEE;} .st97{fill:#F5F5F6;} .st98{clip-path:url(#SVGID_36_);fill:none;stroke:#000000;} .st99{fill:#D9DBDC;} .st100{fill:#929497;} .st101{clip-path:url(#SVGID_38_);fill:none;stroke:#595959;} .st102{clip-path:url(#SVGID_40_);fill:none;stroke:#595959;} .st103{clip-path:url(#SVGID_42_);fill:#231F20;} .st104{fill:#D0D2D3;} .st105{fill:#E6E7E8;} .st106{fill:#F1F1F2;} .st107{fill:none;stroke:#231F20;stroke-width:0.797;stroke-miterlimit:10;} .st108{clip-path:url(#SVGID_44_);fill:#BBBDBF;} .st109{clip-path:url(#SVGID_46_);fill:#BBBDBF;} .st110{clip-path:url(#SVGID_48_);fill:#BBBDBF;} .st111{clip-path:url(#SVGID_50_);fill:#BBBDBF;} .st112{clip-path:url(#SVGID_52_);fill:#BBBDBF;} .st113{clip-path:url(#SVGID_54_);fill:#BBBDBF;} .st114{clip-path:url(#SVGID_54_);fill:none;stroke:#595959;} .st115{clip-path:url(#SVGID_56_);} .st116{clip-path:url(#SVGID_58_);fill:none;stroke:#000000;stroke-width:0.75;stroke-miterlimit:10;} .st117{clip-path:url(#SVGID_58_);fill:#FFFFFF;} .st118{clip-path:url(#SVGID_58_);fill:none;stroke:#000000;stroke-miterlimit:10;} .st119{clip-path:url(#SVGID_58_);} .st120{fill:#BBBDBF;} .st121{clip-path:url(#SVGID_60_);} .st122{clip-path:url(#SVGID_62_);} .st123{fill:#C5C7C9;} .st124{fill:none;stroke:#231F20;stroke-width:0.598;stroke-miterlimit:10;} .st125{fill:none;stroke:#FFFFFF;stroke-width:0.797;stroke-miterlimit:10;} .st126{clip-path:url(#SVGID_64_);fill:#D0D2D3;} .st127{clip-path:url(#SVGID_64_);fill:none;stroke:#929497;} .st128{clip-path:url(#SVGID_64_);fill:#FFFFFF;} .st129{clip-path:url(#SVGID_64_);fill:#BBBDBF;} .st130{clip-path:url(#SVGID_66_);fill:#BBBDBF;} .st131{fill:#FFFFFF;stroke:#D9DBDC;stroke-width:2;stroke-miterlimit:10;} .st132{fill:url(#SVGID_67_);} .st133{fill:url(#SVGID_68_);} .st134{fill:#9B9B9B;} .st135{fill:none;stroke:#9B9B9B;stroke-miterlimit:10;} .st136{fill:none;stroke:#B2B4B6;stroke-miterlimit:10;} .st137{fill:#FFFFFF;stroke:#7EAD18;} .st138{fill:#EFEFEF;stroke:#7EAD18;} .st139{fill:#3D7538;} .st140{fill:#0C426A;} .st141{fill:#E2E3E4;} .st142{fill:#BBCA32;} .st143{fill:#B1B3B5;} .st144{fill-rule:evenodd;clip-rule:evenodd;fill:#FFFFFF;} .st145{fill-rule:evenodd;clip-rule:evenodd;fill:#3D7538;} .st146{fill-rule:evenodd;clip-rule:evenodd;fill:#B2B4B6;} .st147{fill-rule:evenodd;clip-rule:evenodd;fill:#359CD7;} .st148{fill:#DDDDDD;stroke:#DDDDDD;} .st149{fill:url(#SVGID_69_);} .st150{fill:url(#SVGID_70_);} .st151{fill:none;stroke:#FFFFFF;stroke-width:8;} .st152{fill:#DDDDDD;stroke:#FFFFFF;stroke-width:8;} .st153{fill:#B2B4B6;stroke:#FFFFFF;stroke-width:8;} .st154{fill-rule:evenodd;clip-rule:evenodd;fill:#BCCB32;} .st155{fill:#A0A4A5;} .st156{fill:#CBCFD1;} .st157{fill:#F4F4F4;} .st158{fill:#46484C;} .st159{fill:#282828;} .st160{fill:#E5E5E5;} .st161{clip-path:url(#SVGID_72_);} .st162{fill:#ADB1B2;} .st163{fill:#D1D1D1;}</style><g id="Layer_1"><path class="st61" d="M321.2 63.8c-3.4-.2-5.4-.9-7.1-2.6-1.3-1.5-2.1-4.1-2.1-7.2V36.7h8.6c.4 0 .7-.3.7-.7v-8.3c0-.4-.3-.7-.7-.7H312V15.6c0-.4-.3-.7-.7-.7h-11.1c-.4 0-.7.3-.7.7V54c0 6.8 2 11.8 6.2 15.3 3.2 2.8 8.4 4.3 14.5 4.3h1.1c.4 0 .7-.3.7-.7v-8.3c-.1-.5-.4-.8-.8-.8M182.1 63.6h-.6c-3.2 0-5.2-.7-6.6-2.2-1.3-1.6-2-4.1-2-7.8V8c0-.4-.3-.7-.7-.7h-11.1c-.4 0-.7.3-.7.7v45.7c0 7.1 2 12.3 6.1 15.8 3 2.6 7.7 4 13.2 4 .8 0 1.6 0 2.5-.1.4 0 .7-.4.7-.7v-8.4c0-.2-.1-.4-.2-.5-.2-.1-.4-.2-.6-.2M52.3 25.7c-5.2 0-8.9 2.3-12.1 5l-.2-3.2c0-.4-.3-.7-.7-.7h-10c-.4 0-.7.3-.7.7v44.6c0 .4.3.7.7.7h11.1c.4 0 .7-.3.7-.7V41.5c4.1-4.6 5.9-5.3 8.5-5.3 3.7 0 7.7 2.5 7.7 9.6v26.5c0 .4.3.7.7.7h11.1c.4 0 .7-.3.7-.7V43.5c.3-11.7-8.7-17.8-17.5-17.8M119.2 46.5c.5-6.9 4.1-10.9 9.7-10.9 6.2 0 9 3.2 9 10.3v.6h-18.7zm9.5-20.8c-15.2 0-22 12.1-22 24.1 0 12 6.9 24.1 22.3 24.1 7 0 13.4-2.4 17.5-6.7.3-.3.3-.7.1-1l-4.4-6c-.2-.3-.7-.4-1-.2-3.6 2.6-7.4 4-11 4h-.9c-5.2-.2-8.6-3.6-9.8-9.8h29.4c.4 0 .7-.3.7-.6.3-2.2.4-4.1.4-5.3-.2-14.1-8.1-22.6-21.3-22.6M217.2 25.7c-5.2 0-8.9 2.3-12.1 5l-.2-3.2c0-.4-.3-.7-.7-.7h-10c-.4 0-.7.3-.7.7v44.6c0 .4.3.7.7.7h11.1c.4 0 .7-.3.7-.7V41.5c4.1-4.6 5.9-5.3 8.5-5.3 3.7 0 7.7 2.5 7.7 9.6v26.5c0 .4.3.7.7.7H234c.4 0 .7-.3.7-.7V43.5c.3-11.7-8.6-17.8-17.5-17.8M258.2 46.5c.5-6.9 4.1-10.9 9.7-10.9 6.2 0 9 3.2 9 10.3v.6h-18.7zm9.5-20.8c-15.2 0-22 12.1-22 24.1 0 12 6.9 24.1 22.3 24.1 7 0 13.4-2.4 17.5-6.7.3-.3.3-.7.1-1l-4.4-6c-.2-.3-.7-.4-1-.2-3.6 2.6-7.4 4-11 4h-.9c-5.2-.2-8.6-3.6-9.8-9.8h29.4c.4 0 .7-.3.7-.6.3-2.2.4-4.1.4-5.3-.3-14.1-8.1-22.6-21.3-22.6M328.8 68.4h1.3c.2 0 .3 0 .4-.1.1-.1.2-.1.3-.2.1-.1.1-.3.1-.5s0-.3-.1-.4c-.1-.1-.1-.2-.2-.2-.1-.1-.2-.1-.3-.1h-1.5v1.5zm0 2.7h-.6v-4.8h1.9c.5 0 .9.1 1.2.3.2.2.3.6.3 1 0 .2 0 .4-.1.6-.1.2-.2.3-.3.4-.1.1-.2.2-.4.3-.1.1-.3.1-.5.1l1.4 2.1h-.7l-1.4-2.1h-.9v2.1zm-2.6-2.4c0 .5.1 1 .3 1.4.2.4.4.8.8 1.1.3.3.7.6 1.1.8.4.2.9.3 1.4.3.5 0 1-.1 1.4-.3.4-.2.8-.4 1.1-.8.3-.3.6-.7.8-1.1.2-.4.3-.9.3-1.4 0-.5-.1-1-.3-1.4-.2-.4-.4-.8-.8-1.1-.3-.3-.7-.6-1.1-.8-.4-.2-.9-.3-1.4-.3-.5 0-1 .1-1.4.3-.4.2-.8.4-1.1.8-.3.3-.6.7-.8 1.1-.2.4-.3.9-.3 1.4m-.6 0c0-.6.1-1.1.3-1.6.2-.5.5-.9.9-1.3s.8-.7 1.3-.9c.5-.2 1-.3 1.6-.3.6 0 1.1.1 1.6.3.5.2.9.5 1.3.9s.7.8.9 1.3c.2.5.3 1 .3 1.6 0 .6-.1 1.1-.3 1.6-.2.5-.5.9-.9 1.3s-.8.7-1.3.9c-.5.2-1 .3-1.6.3-.6 0-1.1-.1-1.6-.3-.5-.2-.9-.5-1.3-.9s-.7-.8-.9-1.3c-.2-.5-.3-1.1-.3-1.6"/><linearGradient id="SVGID_5_" gradientUnits="userSpaceOnUse" x1="49.326" y1="98.655" x2="49.326"><stop offset="0" stop-color="#8AB232"/><stop offset="1" stop-color="#BCCB2A"/></linearGradient><path d="M49.3 0C22.1 0 0 22.1 0 49.3c0 27.2 22.1 49.3 49.3 49.3 27.2 0 49.3-22.1 49.3-49.3C98.7 22.1 76.5 0 49.3 0m39.2 49.3c0 21.6-17.6 39.2-39.2 39.2S10.1 70.9 10.1 49.3s17.6-39.2 39.2-39.2c21.6.1 39.2 17.6 39.2 39.2" fill="url(#SVGID_5_)"/></g></svg>